<svg width="30" height="30" viewBox="0 0 30 30" fill="none" xmlns="http://www.w3.org/2000/svg">
<path d="M11.2505 25C11.9408 25 12.5005 24.4404 12.5005 23.75C12.5005 23.0596 11.9408 22.5 11.2505 22.5C10.5601 22.5 10.0005 23.0596 10.0005 23.75C10.0005 24.4404 10.5601 25 11.2505 25Z" stroke="black" stroke-opacity="0.9" stroke-width="2.25" stroke-linecap="round" stroke-linejoin="round"/>
<path d="M24.9995 25C25.6899 25 26.2495 24.4404 26.2495 23.75C26.2495 23.0596 25.6899 22.5 24.9995 22.5C24.3092 22.5 23.7495 23.0596 23.7495 23.75C23.7495 24.4404 24.3092 25 24.9995 25Z" stroke="black" stroke-opacity="0.9" stroke-width="2.25" stroke-linecap="round" stroke-linejoin="round"/>
<path d="M2.50049 2.49976H7.04594L10.0914 17.0052C10.1953 17.504 10.4799 17.952 10.8954 18.2709C11.3109 18.5897 11.8308 18.7591 12.3641 18.7494H23.4096C23.9429 18.7591 24.4628 18.5897 24.8783 18.2709C25.2938 17.952 25.5784 17.504 25.6823 17.0052L27.5005 7.91629H8.18231" stroke="black" stroke-opacity="0.9" stroke-width="1.875" stroke-linecap="square" stroke-linejoin="round"/>
</svg>
