<svg width="18" height="19" viewBox="0 0 18 19" fill="none" xmlns="http://www.w3.org/2000/svg">
<path d="M17 9.49907C17.0026 11.0875 16.5302 12.6404 15.6435 13.9583C14.9123 15.049 13.9236 15.9428 12.7649 16.5605C11.6061 17.1782 10.3131 17.5009 9 17.5C7.68692 17.5009 6.39385 17.1782 5.23511 16.5605C4.07638 15.9428 3.08768 15.049 2.35644 13.9583C1.6602 12.9203 1.2168 11.7336 1.06178 10.4934C0.906764 9.25311 1.04444 7.99379 1.46378 6.81635C1.88311 5.6389 2.57244 4.5761 3.4765 3.71312C4.38057 2.85014 5.47422 2.211 6.66978 1.84693C7.86534 1.48286 9.12957 1.404 10.3611 1.61665C11.5926 1.82931 12.7572 2.32757 13.7615 3.0715C14.7658 3.81543 15.5818 4.78433 16.1442 5.90052C16.7066 7.01672 16.9997 8.24917 17 9.49907Z" stroke="#3E3F45" stroke-width="1.5"/>
<path d="M10.1408 5.98387C10.1408 6.6071 9.62973 7.1129 9 7.1129V8.46774C9.66563 8.46774 10.304 8.20605 10.7747 7.74023C11.2454 7.27442 11.5098 6.64263 11.5098 5.98387H10.1408ZM9 7.1129C8.37027 7.1129 7.85919 6.6071 7.85919 5.98387H6.49022C6.49022 6.64263 6.75464 7.27442 7.22532 7.74023C7.69599 8.20605 8.33437 8.46774 9 8.46774V7.1129ZM7.85919 5.98387C7.85919 5.36064 8.37027 4.85484 9 4.85484V3.5C8.33437 3.5 7.69599 3.76169 7.22532 4.22751C6.75464 4.69332 6.49022 5.32511 6.49022 5.98387H7.85919ZM9 4.85484C9.62973 4.85484 10.1408 5.36064 10.1408 5.98387H11.5098C11.5098 5.32511 11.2454 4.69332 10.7747 4.22751C10.304 3.76169 9.66563 3.5 9 3.5V4.85484ZM2.76297 13.9828L2.10678 13.7895L2 14.1436L2.24368 14.4236L2.76297 13.9828ZM15.237 13.9828L15.7572 14.4245L16 14.1445L15.8932 13.7895L15.237 13.9828ZM6.26206 12.0806H11.7379V10.7258H6.26206V12.0806ZM6.26206 10.7258C5.32851 10.7258 4.4199 11.024 3.67127 11.576C2.92264 12.128 2.37396 12.9043 2.10678 13.7895L3.41917 14.1761C3.60218 13.5706 3.97764 13.0397 4.4898 12.6622C5.00195 12.2847 5.62347 12.0808 6.26206 12.0806V10.7258ZM11.7379 12.0806C13.0795 12.0806 14.2158 12.964 14.5808 14.1761L15.8932 13.7895C15.626 12.9043 15.0774 12.128 14.3287 11.576C13.5801 11.024 12.6715 10.7258 11.7379 10.7258V12.0806Z" fill="#3E3F45"/>
</svg>
