<svg width="31" height="31" viewBox="0 0 31 31" fill="none" xmlns="http://www.w3.org/2000/svg">
<path d="M16.0663 9.12923C16.0878 9.10832 16.1308 9.10832 16.1523 9.12923L19.7201 10.7182C19.8061 10.76 19.8061 10.8645 19.7201 10.8854L16.1523 12.4743C16.1308 12.4952 16.0878 12.4952 16.0663 12.4743L12.4986 10.8854C12.4126 10.8436 12.4126 10.7391 12.4986 10.7182L16.0663 9.12923Z" fill="#333333"/>
<path d="M20.4937 11.7845C20.5581 11.7636 20.6226 11.8054 20.6226 11.8681V16.8439C20.6226 16.8858 20.6011 16.9067 20.5581 16.9276L16.8184 18.6001C16.7539 18.621 16.6895 18.5792 16.6895 18.5165V13.5406C16.6895 13.4988 16.7109 13.4779 16.7539 13.457L20.4937 11.7845Z" fill="#333333"/>
<path d="M15.5284 13.5406V18.5164C15.5284 18.5791 15.4639 18.6419 15.3994 18.6001L11.6597 16.9275C11.6167 16.9066 11.5952 16.8857 11.5952 16.8439V11.868C11.5952 11.8053 11.6597 11.7426 11.7242 11.7844L15.4639 13.457C15.5069 13.4779 15.5284 13.4988 15.5284 13.5406Z" fill="#333333"/>
<path fill-rule="evenodd" clip-rule="evenodd" d="M6.28129 11.7685C6.48574 9.29542 7.61242 6.98959 9.43778 5.30854C11.2631 3.62749 13.6537 2.69409 16.1352 2.69355H16.6506C19.1321 2.69409 21.5227 3.62749 23.3481 5.30854C25.1734 6.98959 26.3001 9.29542 26.5045 11.7685C26.732 14.5234 25.8808 17.2591 24.1305 19.3987L18.4126 26.3907C18.1679 26.69 17.8598 26.9311 17.5105 27.0967C17.1612 27.2622 16.7795 27.3481 16.3929 27.3481C16.0064 27.3481 15.6246 27.2622 15.2753 27.0967C14.9261 26.9311 14.6179 26.69 14.3732 26.3907L8.65531 19.3987C6.90502 17.2591 6.05388 14.5234 6.28129 11.7685ZM16.1352 4.483C14.1031 4.48386 12.1456 5.24847 10.6509 6.62516C9.15622 8.00185 8.23357 9.89005 8.06598 11.9152C7.87663 14.208 8.58493 16.4847 10.0415 18.2654L15.7594 25.2586C15.8363 25.3527 15.9331 25.4285 16.0429 25.4805C16.1527 25.5326 16.2726 25.5596 16.3941 25.5596C16.5156 25.5596 16.6356 25.5326 16.7453 25.4805C16.8551 25.4285 16.9519 25.3527 17.0288 25.2586L22.7467 18.2654C24.2024 16.4843 24.9099 14.2077 24.7199 11.9152C24.5522 9.88984 23.6294 8.00147 22.1345 6.62475C20.6395 5.24803 18.6817 4.48356 16.6494 4.483H16.1352Z" fill="#333333"/>
</svg>
